<svg width="14" height="14" viewBox="0 0 14 14" fill="none" xmlns="http://www.w3.org/2000/svg">
<path d="M4.90033 9.91666L7.00033 7.81666L9.10033 9.91666L9.91699 9.09999L7.81699 6.99999L9.91699 4.89999L9.10033 4.08332L7.00033 6.18332L4.90033 4.08332L4.08366 4.89999L6.18366 6.99999L4.08366 9.09999L4.90033 9.91666ZM7.00033 12.8333C6.19338 12.8333 5.43505 12.6802 4.72533 12.3739C4.0156 12.0677 3.39824 11.6521 2.87324 11.1271C2.34824 10.6021 1.93262 9.98471 1.62637 9.27499C1.32012 8.56527 1.16699 7.80693 1.16699 6.99999C1.16699 6.19305 1.32012 5.43471 1.62637 4.72499C1.93262 4.01527 2.34824 3.39791 2.87324 2.87291C3.39824 2.34791 4.0156 1.93228 4.72533 1.62603C5.43505 1.31978 6.19338 1.16666 7.00033 1.16666C7.80727 1.16666 8.5656 1.31978 9.27533 1.62603C9.98505 1.93228 10.6024 2.34791 11.1274 2.87291C11.6524 3.39791 12.068 4.01527 12.3743 4.72499C12.6805 5.43471 12.8337 6.19305 12.8337 6.99999C12.8337 7.80693 12.6805 8.56527 12.3743 9.27499C12.068 9.98471 11.6524 10.6021 11.1274 11.1271C10.6024 11.6521 9.98505 12.0677 9.27533 12.3739C8.5656 12.6802 7.80727 12.8333 7.00033 12.8333ZM7.00033 11.6667C8.3031 11.6667 9.40658 11.2146 10.3107 10.3104C11.2149 9.40624 11.667 8.30277 11.667 6.99999C11.667 5.69721 11.2149 4.59374 10.3107 3.68957C9.40658 2.78541 8.3031 2.33332 7.00033 2.33332C5.69755 2.33332 4.59408 2.78541 3.68991 3.68957C2.78574 4.59374 2.33366 5.69721 2.33366 6.99999C2.33366 8.30277 2.78574 9.40624 3.68991 10.3104C4.59408 11.2146 5.69755 11.6667 7.00033 11.6667Z" fill="#76778B"/>
</svg>
