<svg width="18" height="18" viewBox="0 0 18 18" fill="none" xmlns="http://www.w3.org/2000/svg">
<rect x="0.5" y="0.5" width="17" height="17" rx="3.5" stroke="#76778B"/>
<path d="M5.875 14V12.6667H10.3125C10.9688 12.6667 11.5391 12.4444 12.0234 12C12.5078 11.5556 12.75 11 12.75 10.3333C12.75 9.66667 12.5078 9.11111 12.0234 8.66667C11.5391 8.22222 10.9688 8 10.3125 8H6.375L8 9.73333L7.125 10.6667L4 7.33333L7.125 4L8 4.93333L6.375 6.66667H10.3125C11.3229 6.66667 12.1901 7.01667 12.9141 7.71667C13.638 8.41667 14 9.28889 14 10.3333C14 11.3778 13.638 12.25 12.9141 12.95C12.1901 13.65 11.3229 14 10.3125 14H5.875Z" fill="#76778B"/>
</svg>
