<svg width="16" height="16" viewBox="0 0 16 16" fill="none" xmlns="http://www.w3.org/2000/svg">
<path d="M10.8974 9.47363C11.1882 9.14129 11.6938 9.107 12.0263 9.39746C12.3587 9.68827 12.393 10.1939 12.1025 10.5264L8.60248 14.5264C8.45057 14.7 8.23062 14.7998 7.99994 14.7998C7.76927 14.7998 7.5493 14.7 7.3974 14.5264L3.8974 10.5264C3.60694 10.1939 3.64126 9.68826 3.97357 9.39746C4.30608 9.10698 4.81167 9.14131 5.10248 9.47363L7.99994 12.7842L10.8974 9.47363ZM7.99994 1.2002C8.23062 1.2002 8.45057 1.30004 8.60248 1.47363L12.1025 5.47363C12.393 5.80615 12.3587 6.31173 12.0263 6.60254C11.6938 6.893 11.1882 6.85871 10.8974 6.52637L7.99994 3.21484L5.10248 6.52637C4.81167 6.85869 4.30608 6.89302 3.97357 6.60254C3.64126 6.31174 3.60694 5.80614 3.8974 5.47363L7.3974 1.47363C7.5493 1.30003 7.76927 1.20021 7.99994 1.2002Z" fill="#4A4B5E"/>
</svg>
