<svg width="14" height="14" viewBox="0 0 14 14" fill="none" xmlns="http://www.w3.org/2000/svg">
<path d="M12 5.90909C12 9.72727 7 13 7 13C7 13 2 9.72727 2 5.90909C2 4.60712 2.52678 3.35847 3.46447 2.43784C4.40215 1.51721 5.67392 1 7 1C8.32608 1 9.59785 1.51721 10.5355 2.43784C11.4732 3.35847 12 4.60712 12 5.90909Z" stroke="#0F0F10" stroke-linecap="round" stroke-linejoin="round"/>
<path d="M7 7.54545C7.92047 7.54545 8.66667 6.81283 8.66667 5.90909C8.66667 5.00535 7.92047 4.27273 7 4.27273C6.07953 4.27273 5.33333 5.00535 5.33333 5.90909C5.33333 6.81283 6.07953 7.54545 7 7.54545Z" stroke="#0F0F10" stroke-linecap="round" stroke-linejoin="round"/>
</svg>
