<svg width="16" height="16" viewBox="0 0 16 16" fill="none" xmlns="http://www.w3.org/2000/svg">
<path d="M13 6.90909C13 10.7273 8 14 8 14C8 14 3 10.7273 3 6.90909C3 5.60712 3.52678 4.35847 4.46447 3.43784C5.40215 2.51721 6.67392 2 8 2C9.32608 2 10.5979 2.51721 11.5355 3.43784C12.4732 4.35847 13 5.60712 13 6.90909Z" stroke="#0F0F10" stroke-width="1.6" stroke-linecap="round" stroke-linejoin="round"/>
<path d="M8 8.54545C8.92047 8.54545 9.66667 7.81283 9.66667 6.90909C9.66667 6.00535 8.92047 5.27273 8 5.27273C7.07953 5.27273 6.33333 6.00535 6.33333 6.90909C6.33333 7.81283 7.07953 8.54545 8 8.54545Z" stroke="#0F0F10" stroke-width="1.6" stroke-linecap="round" stroke-linejoin="round"/>
</svg>
