<svg width="134" height="14" viewBox="0 0 134 14" fill="none" xmlns="http://www.w3.org/2000/svg">
<path d="M117.625 13.7356V4.36792H119.967V5.42556H120.307C120.446 5.04783 120.672 4.77083 120.987 4.59455C121.314 4.41828 121.692 4.33014 122.12 4.33014H123.253V6.44542H122.082C121.478 6.44542 120.981 6.60911 120.59 6.93647C120.2 7.25125 120.005 7.74229 120.005 8.40961V13.7356H117.625Z" fill="#0F0F10"/>
<path d="M126.237 13.7354H124.091V6.86816H126.237V13.7354ZM129.695 13.7354H127.515V6.75781H129.695V13.7354ZM133.104 13.7354H130.959V0H133.104V13.7354Z" fill="url(#paint0_linear_9454_752)"/>
<path d="M110.559 14C109.892 14 109.294 13.8867 108.765 13.66C108.236 13.4208 107.814 13.0809 107.5 12.6402C107.197 12.1869 107.046 11.6392 107.046 10.9971C107.046 10.3549 107.197 9.8198 107.5 9.39171C107.814 8.95103 108.243 8.62366 108.784 8.40962C109.338 8.18298 109.967 8.06966 110.673 8.06966H113.241V7.54084C113.241 7.10016 113.103 6.74131 112.826 6.46431C112.549 6.17472 112.108 6.02992 111.504 6.02992C110.912 6.02992 110.471 6.16843 110.182 6.44543C109.892 6.70984 109.703 7.05609 109.615 7.48418L107.424 6.74761C107.575 6.26915 107.814 5.83477 108.142 5.44445C108.482 5.04154 108.929 4.72047 109.483 4.48124C110.049 4.22942 110.736 4.10351 111.541 4.10351C112.775 4.10351 113.751 4.41199 114.469 5.02894C115.186 5.6459 115.545 6.53986 115.545 7.71082V11.2048C115.545 11.5825 115.722 11.7714 116.074 11.7714H116.83V13.7356H115.243C114.777 13.7356 114.393 13.6223 114.091 13.3956C113.789 13.169 113.638 12.8668 113.638 12.4891V12.4702H113.279C113.229 12.6213 113.115 12.8227 112.939 13.0746C112.763 13.3138 112.486 13.5278 112.108 13.7167C111.73 13.9056 111.214 14 110.559 14ZM110.975 12.0736C111.642 12.0736 112.183 11.891 112.599 11.5259C113.027 11.1482 113.241 10.6508 113.241 10.0338V9.84499H110.843C110.402 9.84499 110.056 9.93942 109.804 10.1283C109.552 10.3171 109.426 10.5816 109.426 10.9215C109.426 11.2615 109.558 11.5385 109.823 11.7525C110.087 11.9666 110.471 12.0736 110.975 12.0736Z" fill="#0F0F10"/>
<path d="M101.488 14C100.556 14 99.719 13.8111 98.9761 13.4334C98.2332 13.0557 97.6477 12.508 97.2197 11.7903C96.7916 11.0726 96.5775 10.2101 96.5775 9.20285V8.90066C96.5775 7.89339 96.7916 7.03091 97.2197 6.31322C97.6477 5.59554 98.2332 5.04783 98.9761 4.6701C99.719 4.29237 100.556 4.10351 101.488 4.10351C102.42 4.10351 103.257 4.29237 104 4.6701C104.743 5.04783 105.328 5.59554 105.756 6.31322C106.184 7.03091 106.398 7.89339 106.398 8.90066V9.20285C106.398 10.2101 106.184 11.0726 105.756 11.7903C105.328 12.508 104.743 13.0557 104 13.4334C103.257 13.8111 102.42 14 101.488 14ZM101.488 11.8847C102.218 11.8847 102.823 11.6518 103.301 11.1859C103.78 10.7075 104.019 10.0276 104.019 9.14619V8.95732C104.019 8.07596 103.78 7.40234 103.301 6.93647C102.835 6.45802 102.231 6.21879 101.488 6.21879C100.758 6.21879 100.153 6.45802 99.6749 6.93647C99.1964 7.40234 98.9572 8.07596 98.9572 8.95732V9.14619C98.9572 10.0276 99.1964 10.7075 99.6749 11.1859C100.153 11.6518 100.758 11.8847 101.488 11.8847Z" fill="#0F0F10"/>
<path d="M91.5596 14C90.716 14 90.0675 13.8552 89.6143 13.5656C89.161 13.276 88.8273 12.955 88.6133 12.6024H88.2733V13.7356H85.9314V0.515083H88.3111V5.44444H88.651C88.7895 5.21781 88.9721 5.00376 89.1987 4.8023C89.438 4.60085 89.7465 4.43717 90.1242 4.31126C90.5145 4.17276 90.993 4.10351 91.5596 4.10351C92.315 4.10351 93.0138 4.29237 93.656 4.6701C94.2981 5.03524 94.8143 5.57665 95.2046 6.29433C95.595 7.01202 95.7901 7.88079 95.7901 8.90066V9.20284C95.7901 10.2227 95.595 11.0915 95.2046 11.8092C94.8143 12.5269 94.2981 13.0746 93.656 13.4523C93.0138 13.8174 92.315 14 91.5596 14ZM90.8419 11.9225C91.5721 11.9225 92.1828 11.6896 92.6739 11.2237C93.1649 10.7452 93.4104 10.0527 93.4104 9.14618V8.95732C93.4104 8.05077 93.1649 7.36456 92.6739 6.8987C92.1954 6.42024 91.5847 6.18101 90.8419 6.18101C90.1116 6.18101 89.5009 6.42024 89.0099 6.8987C88.5188 7.36456 88.2733 8.05077 88.2733 8.95732V9.14618C88.2733 10.0527 88.5188 10.7452 89.0099 11.2237C89.5009 11.6896 90.1116 11.9225 90.8419 11.9225Z" fill="#0F0F10"/>
<path d="M75.2377 13.7356V0.515083H77.6174V5.51999H77.9573C78.058 5.31853 78.2154 5.11708 78.4295 4.91562C78.6435 4.71417 78.9268 4.55049 79.2794 4.42458C79.6445 4.28608 80.1041 4.21683 80.6581 4.21683C81.3884 4.21683 82.0242 4.3868 82.5656 4.72676C83.1196 5.05412 83.5477 5.51369 83.8499 6.10547C84.1521 6.68465 84.3032 7.36456 84.3032 8.1452V13.7356H81.9235V8.33407C81.9235 7.62898 81.7472 7.10015 81.3946 6.74761C81.0547 6.39506 80.5636 6.21879 79.9215 6.21879C79.1912 6.21879 78.6246 6.46431 78.2217 6.95536C77.8188 7.43381 77.6174 8.10743 77.6174 8.97621V13.7356H75.2377Z" fill="#0F0F10"/>
<path d="M70.1683 14C68.947 14 67.946 13.7356 67.1654 13.2068C66.3847 12.678 65.9126 11.9225 65.7489 10.9404L67.9397 10.3738C68.0279 10.8145 68.1727 11.1607 68.3741 11.4126C68.5882 11.6644 68.8463 11.8469 69.1485 11.9603C69.4632 12.061 69.8032 12.1114 70.1683 12.1114C70.7223 12.1114 71.1315 12.0169 71.3959 11.8281C71.6604 11.6266 71.7926 11.3811 71.7926 11.0915C71.7926 10.8019 71.6667 10.5816 71.4148 10.4305C71.163 10.2668 70.7601 10.1346 70.2061 10.0338L69.6773 9.93942C69.0225 9.81351 68.4245 9.64353 67.8831 9.42948C67.3417 9.20285 66.9073 8.89437 66.5799 8.50405C66.2525 8.11373 66.0889 7.61009 66.0889 6.99313C66.0889 6.0614 66.4288 5.35001 67.1087 4.85897C67.7886 4.35533 68.6826 4.10351 69.7906 4.10351C70.8356 4.10351 71.7044 4.33644 72.3969 4.80231C73.0894 5.26817 73.5427 5.87883 73.7567 6.63429L71.547 7.3142C71.4463 6.83575 71.2386 6.49579 70.9238 6.29434C70.6216 6.09288 70.2439 5.99215 69.7906 5.99215C69.3373 5.99215 68.9911 6.07399 68.7518 6.23768C68.5126 6.38877 68.393 6.60281 68.393 6.87982C68.393 7.182 68.5189 7.40864 68.7707 7.55973C69.0225 7.69823 69.3625 7.80525 69.7906 7.8808L70.3194 7.97523C71.0245 8.10114 71.6604 8.27112 72.2269 8.48516C72.8061 8.68662 73.2594 8.9825 73.5868 9.37282C73.9267 9.75055 74.0967 10.2668 74.0967 10.9215C74.0967 11.9036 73.7379 12.6654 73.0202 13.2068C72.3151 13.7356 71.3645 14 70.1683 14Z" fill="#0F0F10"/>
<path d="M59.2856 14C58.6183 14 58.0202 13.8867 57.4914 13.66C56.9625 13.4208 56.5408 13.0809 56.226 12.6402C55.9238 12.1869 55.7727 11.6392 55.7727 10.9971C55.7727 10.3549 55.9238 9.8198 56.226 9.39171C56.5408 8.95103 56.9688 8.62366 57.5103 8.40962C58.0643 8.18298 58.6938 8.06966 59.3989 8.06966H61.9675V7.54084C61.9675 7.10016 61.829 6.74131 61.552 6.46431C61.275 6.17472 60.8343 6.02992 60.2299 6.02992C59.6381 6.02992 59.1974 6.16843 58.9079 6.44543C58.6183 6.70984 58.4294 7.05609 58.3413 7.48418L56.1504 6.74761C56.3015 6.26915 56.5408 5.83477 56.8681 5.44445C57.2081 5.04154 57.6551 4.72047 58.2091 4.48124C58.7757 4.22942 59.4619 4.10351 60.2677 4.10351C61.5016 4.10351 62.4774 4.41199 63.1951 5.02894C63.9128 5.6459 64.2716 6.53986 64.2716 7.71082V11.2048C64.2716 11.5825 64.4479 11.7714 64.8004 11.7714H65.5559V13.7356H63.9694C63.5036 13.7356 63.1195 13.6223 62.8173 13.3956C62.5152 13.169 62.3641 12.8668 62.3641 12.4891V12.4702H62.0052C61.9549 12.6213 61.8415 12.8227 61.6653 13.0746C61.489 13.3138 61.212 13.5278 60.8343 13.7167C60.4565 13.9056 59.9403 14 59.2856 14ZM59.7011 12.0736C60.3684 12.0736 60.9098 11.891 61.3253 11.5259C61.7534 11.1482 61.9675 10.6508 61.9675 10.0338V9.84499H59.5689C59.1282 9.84499 58.7819 9.93942 58.5301 10.1283C58.2783 10.3171 58.1524 10.5816 58.1524 10.9215C58.1524 11.2615 58.2846 11.5385 58.549 11.7525C58.8134 11.9666 59.1974 12.0736 59.7011 12.0736Z" fill="#0F0F10"/>
<path d="M44.2894 13.7356V11.5448H46.027V2.70591H44.2894V0.515083H49.7287C51.504 0.515083 52.8513 0.968358 53.7704 1.87491C54.7021 2.76887 55.168 4.10351 55.168 5.87883V8.37184C55.168 10.1472 54.7021 11.4881 53.7704 12.3947C52.8513 13.2886 51.504 13.7356 49.7287 13.7356H44.2894ZM48.52 11.4692H49.7665C50.7738 11.4692 51.5103 11.2048 51.9762 10.676C52.4421 10.1472 52.675 9.4043 52.675 8.44739V5.80329C52.675 4.83378 52.4421 4.09092 51.9762 3.57469C51.5103 3.04587 50.7738 2.78146 49.7665 2.78146H48.52V11.4692Z" fill="#0F0F10"/>
<path d="M34.3478 13.7356V4.36792H36.6897V5.42556H37.0297C37.1682 5.04783 37.3948 4.77083 37.7096 4.59455C38.0369 4.41828 38.4147 4.33014 38.8428 4.33014H39.9759V6.44542H38.805C38.2006 6.44542 37.7033 6.60911 37.3129 6.93647C36.9226 7.25125 36.7275 7.74229 36.7275 8.40961V13.7356H34.3478Z" fill="#0F0F10"/>
<path d="M28.6602 14C27.7285 14 26.9038 13.8048 26.1861 13.4145C25.481 13.0116 24.927 12.4513 24.5241 11.7336C24.1338 11.0034 23.9386 10.1472 23.9386 9.16507V8.93844C23.9386 7.95634 24.1338 7.10645 24.5241 6.38877C24.9144 5.65849 25.4621 5.09819 26.1672 4.70787C26.8723 4.30496 27.6907 4.10351 28.6224 4.10351C29.5416 4.10351 30.3411 4.31126 31.021 4.72676C31.7009 5.12967 32.2297 5.69626 32.6075 6.42654C32.9852 7.14422 33.1741 7.98152 33.1741 8.93844V9.75055H26.3561C26.3812 10.3927 26.6205 10.9152 27.0737 11.3181C27.527 11.721 28.081 11.9225 28.7358 11.9225C29.4031 11.9225 29.8941 11.7777 30.2089 11.4881C30.5237 11.1985 30.7629 10.8774 30.9266 10.5249L32.8719 11.5448C32.6956 11.8721 32.4375 12.231 32.0975 12.6213C31.7702 12.999 31.3295 13.3264 30.7755 13.6034C30.2215 13.8678 29.5164 14 28.6602 14ZM26.3749 7.97523H30.7566C30.7062 7.43382 30.4859 6.99943 30.0956 6.67206C29.7178 6.3447 29.2205 6.18102 28.6035 6.18102C27.9614 6.18102 27.4515 6.3447 27.0737 6.67206C26.696 6.99943 26.4631 7.43382 26.3749 7.97523Z" fill="#0F0F10"/>
<path d="M18.9205 14C18.0769 14 17.4285 13.8552 16.9752 13.5656C16.5219 13.276 16.1883 12.955 15.9742 12.6024H15.6343V13.7356H13.2924V0.515083H15.672V5.44444H16.012C16.1505 5.21781 16.3331 5.00376 16.5597 4.8023C16.7989 4.60085 17.1074 4.43717 17.4851 4.31126C17.8755 4.17276 18.3539 4.10351 18.9205 4.10351C19.676 4.10351 20.3748 4.29237 21.0169 4.6701C21.6591 5.03524 22.1753 5.57665 22.5656 6.29433C22.9559 7.01202 23.1511 7.88079 23.1511 8.90066V9.20284C23.1511 10.2227 22.9559 11.0915 22.5656 11.8092C22.1753 12.5269 21.6591 13.0746 21.0169 13.4523C20.3748 13.8174 19.676 14 18.9205 14ZM18.2028 11.9225C18.9331 11.9225 19.5438 11.6896 20.0348 11.2237C20.5259 10.7452 20.7714 10.0527 20.7714 9.14618V8.95732C20.7714 8.05077 20.5259 7.36456 20.0348 6.8987C19.5564 6.42024 18.9457 6.18101 18.2028 6.18101C17.4726 6.18101 16.8619 6.42024 16.3708 6.8987C15.8798 7.36456 15.6343 8.05077 15.6343 8.95732V9.14618C15.6343 10.0527 15.8798 10.7452 16.3708 11.2237C16.8619 11.6896 17.4726 11.9225 18.2028 11.9225Z" fill="#0F0F10"/>
<path d="M9.21996 13.7356V4.36792H11.5997V13.7356H9.21996ZM10.4098 3.27251C9.98171 3.27251 9.61658 3.134 9.31439 2.857C9.0248 2.58 8.88 2.21486 8.88 1.76159C8.88 1.30832 9.0248 0.943178 9.31439 0.666177C9.61658 0.389176 9.98171 0.250675 10.4098 0.250675C10.8505 0.250675 11.2156 0.389176 11.5052 0.666177C11.7948 0.943178 11.9396 1.30832 11.9396 1.76159C11.9396 2.21486 11.7948 2.58 11.5052 2.857C11.2156 3.134 10.8505 3.27251 10.4098 3.27251Z" fill="#0F0F10"/>
<path d="M0 13.7356V0.515083H8.31003V2.78146H2.49301V5.97326H7.85676V8.23964H2.49301V13.7356H0Z" fill="#0F0F10"/>
<defs>
<linearGradient id="paint0_linear_9454_752" x1="127.132" y1="10.8" x2="133.757" y2="0.420882" gradientUnits="userSpaceOnUse">
<stop stop-color="#7459E6"/>
<stop offset="1" stop-color="#FAB83D"/>
</linearGradient>
</defs>
</svg>
