<svg width="16" height="16" viewBox="0 0 16 16" fill="none" xmlns="http://www.w3.org/2000/svg">
<path d="M3.55439 2H6.8886M6.8886 2V5.27273M6.8886 2L4.46574 4.53091C3.8682 5.11713 3.43169 5.84239 3.19695 6.63899C2.9622 7.43559 2.93686 8.27758 3.12331 9.08639C3.30975 9.8952 3.70189 10.6445 4.26314 11.2643C4.82439 11.8841 5.53646 12.3543 6.33289 12.6309M12.4456 14H9.1114M9.1114 14V10.7273M9.1114 14L11.5343 11.4691C12.1318 10.8829 12.5683 10.1576 12.8031 9.36101C13.0378 8.56441 13.0631 7.72242 12.8767 6.91361C12.6903 6.1048 12.2981 5.35553 11.7369 4.73571C11.1756 4.11589 10.4635 3.64573 9.6671 3.36909" stroke="#0F0F10" stroke-width="1.5" stroke-linecap="round" stroke-linejoin="round"/>
</svg>
