<svg width="48" height="48" viewBox="0 0 48 48" fill="none" xmlns="http://www.w3.org/2000/svg">
<foreignObject x="-4" y="-4" width="56" height="56"><div xmlns="http://www.w3.org/1999/xhtml" style="backdrop-filter:blur(2px);clip-path:url(#bgblur_0_22011_1374_clip_path);height:100%;width:100%"></div></foreignObject><g data-figma-bg-blur-radius="4">
<path d="M0 24C0 10.7452 10.7452 0 24 0C37.2548 0 48 10.7452 48 24C48 37.2548 37.2548 48 24 48C10.7452 48 0 37.2548 0 24Z" fill="white"/>
<path d="M33 33L28.65 28.65M31 23C31 27.4183 27.4183 31 23 31C18.5817 31 15 27.4183 15 23C15 18.5817 18.5817 15 23 15C27.4183 15 31 18.5817 31 23Z" stroke="#0F0F10" stroke-width="1.5" stroke-linecap="round" stroke-linejoin="round"/>
</g>
<defs>
<clipPath id="bgblur_0_22011_1374_clip_path" transform="translate(4 4)"><path d="M0 24C0 10.7452 10.7452 0 24 0C37.2548 0 48 10.7452 48 24C48 37.2548 37.2548 48 24 48C10.7452 48 0 37.2548 0 24Z"/>
</clipPath></defs>
</svg>
