<svg width="16" height="16" viewBox="0 0 16 16" fill="none" xmlns="http://www.w3.org/2000/svg">
<path d="M4.40797 9.88804L5.83205 7.75192C5.94156 7.58766 6 7.39465 6 7.19722V2C6 1.72386 6.22386 1.5 6.5 1.5H9.5C9.77614 1.5 10 1.72386 10 2V7.19722C10 7.39465 10.0584 7.58766 10.1679 7.75192L13.9635 13.4453C14.4066 14.1099 13.9302 15 13.1315 15H2.86852C2.06982 15 1.59343 14.1099 2.03647 13.4453L4.40797 9.88804ZM4.40797 9.88804C5.27198 9.62935 7.2 9.18957 8 9.5C9 9.88804 10.8333 10.7761 11.6667 9.88804" stroke="#0F0F10" stroke-width="1.6"/>
</svg>
